# xmcd
# 
# Track frame offsets:
#     150
#     15036
#     32343
#     52993
#     66375
#     82053
#     103231
#     125573
#     141383
#     150139
#     160333
# 
# Disc length: 2444
# 
# Revision: 0
# Processed by: cddbd v1.5.2PL0 Copyright (c) Steve Scherf et al.
# Submitted via: fre:ac v1.0.17
# 
DISCID=85098a0b
DTITLE=Doug Moreland - Barnstormer
DYEAR=2009
DGENRE=Country
TTITLE0=The Tortilla
TTITLE1=Windmill
TTITLE2=Fly On
TTITLE3=Play Me Back In Time
TTITLE4=World’s Inn
TTITLE5=Marfa Lights
TTITLE6=The Epic
TTITLE7=Hunting Bear
TTITLE8=Bigfoot Waltz
TTITLE9=Barnstormer
TTITLE10=Die in the Desert
EXTD=
EXTT0=
EXTT1=
EXTT2=
EXTT3=
EXTT4=
EXTT5=
EXTT6=
EXTT7=
EXTT8=
EXTT9=
EXTT10=
PLAYORDER=
